<svg width="332" height="440" viewBox="0 0 332 440" fill="none" xmlns="http://www.w3.org/2000/svg">
<g filter="url(#filter0_d)">
<path d="M53.1648 236.524C33.9359 236.524 18.2183 234.428 17.7167 231.807L20.5592 271.308C20.5592 290.042 35.2178 305.305 53.1648 305.305C71.1118 305.305 85.7704 289.977 85.7704 271.308L88.613 231.807C88.2228 234.428 72.5052 236.524 53.1648 236.524Z" fill="#FFB167"/>
<path d="M53.1652 236.524C33.6019 236.524 17.7728 234.362 17.6614 231.742V231.676C17.8286 228.991 33.6576 226.894 53.1652 226.894C72.6728 226.894 88.4462 229.056 88.6691 231.676V231.742C88.5576 234.428 72.6728 236.524 53.1652 236.524Z" fill="#E8D4C1"/>
<path d="M53.1652 235.738C36.6673 235.738 23.2907 233.903 23.235 231.676V231.611C23.4022 229.383 36.7231 227.549 53.1652 227.549C69.6074 227.549 82.984 229.318 83.0955 231.611V231.676C83.0398 233.903 69.6631 235.738 53.1652 235.738Z" fill="#BA9C7E"/>
<path d="M18.9434 248.773C21.2285 248.839 23.458 249.887 25.4087 252.114C29.0316 256.241 31.3168 262.661 34.2708 267.508C35.3855 264.888 36.333 262.202 37.2248 259.451C38.2838 256.175 42.0181 253.097 44.9721 255.782C48.0933 258.599 50.4342 261.875 52.4965 265.87C54.2243 269.342 55.6734 273.404 58.4045 276.024C61.0241 278.513 64.0338 279.234 65.0928 274.779C66.0403 270.914 65.7059 266.722 66.7649 262.792C67.6567 259.582 69.0501 256.175 71.8926 254.734C75.2368 253.031 78.4695 255.127 81.4235 256.896C83.207 257.944 84.9349 259.058 86.6627 260.237L86.0496 268.556C82.9841 266.329 79.3055 263.578 76.1843 263.054C74.2335 262.726 74.345 264.298 74.2335 266.46C74.1221 268.425 74.122 270.39 74.0663 272.29C73.8991 276.286 73.3975 280.216 71.391 283.492C67.0993 290.566 59.0733 290.239 53.444 285.719C50.3785 283.295 48.2048 280.151 46.254 276.548C45.6409 275.369 45.0278 274.124 44.4147 272.945C42.0181 279.561 38.2838 285.457 32.2085 282.967C28.4185 281.395 25.9661 276.548 23.6809 272.945C22.9564 271.831 21.6744 269.08 20.3925 266.656L18.9434 248.773Z" fill="#864C19"/>
<path d="M5.00943 101.646C5.734 98.3057 9.1339 97.7816 11.1404 99.7468C14.9304 103.481 16.8812 108.59 18.9992 113.7C21.1729 119.071 23.8482 123.984 26.9694 128.635C33.3233 138.133 40.4018 147.042 45.0836 157.916C54.1129 179.075 56.2866 203.967 50.0442 226.632C49.877 227.353 51.0474 223.75 49.0966 230.039C47.3688 235.738 40.4576 232.659 40.569 226.043C40.6248 219.558 39.1756 213.531 36.7232 207.766C31.8742 196.368 25.8547 185.756 21.1171 174.227C16.3796 162.633 12.1436 150.711 8.79947 138.526C5.45531 126.735 2.3341 114.093 5.00943 101.646Z" fill="#4C7378"/>
<path d="M49.2638 35.2887C51.6605 30.1137 58.8504 33.6511 57.4013 39.2846C53.2211 55.9887 56.2308 73.7408 58.7947 90.4449C61.4143 107.542 64.4798 124.508 66.3191 141.736C69.496 172.328 68.4928 206.718 51.9949 232.266C50.2113 235.017 46.477 232.724 47.9262 229.449C49.5425 225.846 45.418 202.002 43.6345 194.338C41.7952 186.477 39.9002 178.551 38.2281 170.69C34.9397 155.231 32.2643 139.444 31.5398 123.46C30.1464 92.4756 36.6675 62.4083 49.2638 35.2887Z" fill="#57848A"/>
<path d="M57.1227 205.408C59.0735 194.993 57.6244 183.988 59.5194 173.572C61.3587 163.419 63.9225 153.069 67.9355 143.767C71.7813 134.924 77.6336 128.635 84.4891 123.198C90.9545 118.023 98.5904 112.979 100.876 103.546C102.213 97.9781 110.351 98.7642 109.849 104.987C108.79 117.63 104.22 128.766 98.9805 139.64C93.3512 151.235 88.4464 162.371 85.6596 175.341C80.922 197.679 76.8533 226.632 55.172 233.445C52.6081 234.296 52.9983 227.68 57.1227 205.408Z" fill="#689399"/>
<path d="M286.7 19.1087L285.641 17.9295L295.896 4.95929L303.922 18.0605L302.696 19.0431L295.785 7.77609L286.7 19.1087Z" fill="#8A6645"/>
<path d="M250.415 354.893C247.461 355.81 244.284 353.452 242.891 349.325L235.143 326.267C233.416 321.223 235.199 315.655 238.766 314.541L243.559 313.035C247.182 311.921 250.972 315.721 251.641 321.092L254.595 345.657C255.097 350.046 253.313 353.976 250.415 354.893Z" fill="#8A6645"/>
<path d="M127.183 354.893C130.137 355.81 133.314 353.452 134.707 349.325L142.454 326.267C144.182 321.223 142.398 315.655 138.831 314.541L134.038 313.035C130.415 311.921 126.625 315.721 125.956 321.092L123.002 345.657C122.445 350.046 124.229 353.976 127.183 354.893Z" fill="#7A5B3C"/>
<path d="M268.753 377.427C264.907 378.607 260.782 375.528 258.999 370.156L248.966 340.22C246.793 333.669 249.022 326.464 253.704 325.023L259.946 323.123C264.628 321.682 269.589 326.595 270.48 333.604L274.27 365.505C274.939 371.139 272.598 376.248 268.753 377.427Z" fill="#8A6645"/>
<path d="M108.79 377.427C112.635 378.607 116.76 375.528 118.543 370.156L128.576 340.22C130.75 333.669 128.52 326.464 123.838 325.023L117.596 323.123C112.914 321.682 107.954 326.595 107.062 333.604L103.272 365.505C102.659 371.139 104.944 376.248 108.79 377.427Z" fill="#A67C52"/>
<path d="M280.903 258.468H99.4821C88.6136 258.468 79.6958 248.053 79.6958 235.214V146.977C79.6958 134.203 88.5578 123.722 99.4821 123.722H280.903C291.771 123.722 300.689 134.138 300.689 146.977V235.214C300.689 248.053 291.771 258.468 280.903 258.468Z" fill="#4B7FFB"/>
<path d="M287.647 215.038C284.303 215.103 281.516 218.116 281.237 222.047C280.011 237.048 276.388 271.242 268.529 288.274C263.123 299.999 247.183 301.047 242.947 301.113H137.271C133.035 301.047 117.15 299.999 111.688 288.274C103.829 271.242 100.151 237.113 98.9803 222.047C98.6459 218.116 95.9149 215.169 92.5707 215.038L58.9619 214.448C55.1161 214.383 52.0506 218.182 52.3293 222.702C53.444 241.437 57.8471 287.488 74.8466 317.162C84.0988 333.211 98.4787 338.189 102.102 339.237C104.164 340.023 277.614 339.565 279.008 339.172C283.634 337.665 296.732 332.163 305.371 317.227C322.426 287.619 326.829 241.502 327.888 222.767C328.167 218.247 325.102 214.448 321.256 214.514L287.647 215.038Z" fill="#4B7FFB"/>
<path d="M137.215 301.309H243.002C247.238 301.244 263.179 300.196 268.585 288.47C276.946 270.39 280.513 232.986 281.572 219.623C281.795 216.806 281.293 213.99 280.178 211.5L273.211 195.975C272.821 195.124 271.707 195.32 271.595 196.237C269.7 207.308 262.622 247.005 258.943 249.887C254.651 253.228 123.727 250.345 118.711 249.887C114.419 249.559 109.961 208.749 108.734 196.696C108.623 195.713 107.452 195.451 107.062 196.368L100.318 211.369C99.1477 213.99 98.6461 216.937 98.869 219.82C99.8723 233.117 103.439 270.521 111.8 288.47C117.095 300.13 133.035 301.244 137.215 301.309Z" fill="#4A52BD"/>
<path d="M253.314 301.113H124.229C123.839 301.113 123.504 301.113 123.17 301.047C110.183 300.458 101.823 285.85 106.561 272.749L112.413 256.569C112.915 255.193 114.085 251.59 114.085 251.59C119.101 238.423 127.071 235.148 138.163 235.148H239.435C250.527 235.148 260.671 241.895 263.736 252.245C263.736 252.245 264.684 255.193 265.185 256.569L271.038 272.749C275.775 285.85 267.415 300.458 254.428 301.047C254.038 301.113 253.648 301.113 253.314 301.113Z" fill="#2F37A8"/>
<path d="M98.9247 219.689C98.7017 216.741 99.2034 213.793 100.374 211.238L107.118 196.237C107.508 195.386 108.511 195.582 108.734 196.434C108.734 196.434 108.567 193.683 103.718 193.29H84.6562C81.3678 193.29 78.1351 194.403 75.3483 196.499L57.9029 209.797C54.2243 212.614 52.0506 217.527 52.2736 222.702C51.9949 218.182 55.0604 214.383 58.9062 214.448L92.515 215.038C95.6363 215.103 98.2558 217.723 98.8689 221.261L98.9247 221.326C98.9804 220.802 98.9247 220.213 98.9247 219.689Z" fill="#002C76"/>
<path d="M281.572 219.689C281.795 216.741 281.07 213.859 279.9 211.238L273.156 196.303C272.765 195.451 271.762 195.648 271.539 196.499C271.539 196.499 271.706 193.748 276.555 193.355H295.561C298.85 193.355 302.138 194.469 304.869 196.565L322.315 209.863C326.049 212.68 328.167 217.658 327.944 222.767C328.223 218.248 325.102 214.448 321.311 214.514L287.703 215.103C284.526 215.169 282.073 217.789 281.516 221.326C281.46 221.392 281.516 220.213 281.572 219.689Z" fill="#002C76"/>
<path d="M275.998 249.756C275.998 249.756 281.46 250.476 285.418 255.258C289.375 260.04 288.037 268.032 285.418 270.521C280.847 274.779 272.041 274.779 265.408 274.779C258.776 274.779 254.373 273.011 254.373 273.011L262.845 248.315C262.845 248.315 268.14 247.201 275.998 249.756Z" fill="black"/>
<path d="M197.745 324.498C194.456 331.508 191.224 338.451 187.991 345.395C185.817 350.046 188.827 356.4 192.617 358.169C197.243 360.33 201.312 357.383 203.486 352.732C206.774 345.722 210.007 338.779 213.239 331.835C215.413 327.184 212.403 320.83 208.613 319.061C204.043 316.834 199.918 319.782 197.745 324.498Z" fill="#FCB58A"/>
<path d="M228.232 103.546C228.232 103.546 221.042 76.4922 218.59 65.0941C214.856 47.4729 204.6 36.861 190.164 36.861C175.506 36.861 165.25 47.6694 161.182 65.2251C157.057 83.3048 151.651 102.171 151.651 102.171C151.038 104.594 152.041 107.149 153.992 108.066C158.618 110.228 168.372 114.093 190.164 113.765C209.616 113.438 219.649 110.228 224.721 109.638C227.229 109.245 228.901 106.428 228.232 103.546Z" fill="black"/>
<path d="M198.469 95.0304H181.86V128.766C181.86 131.321 183.588 133.352 185.762 133.352H194.568C196.742 133.352 198.469 131.321 198.469 128.766V95.0304Z" fill="#FCB58A"/>
<path d="M327.275 74.789H259.556C259.166 74.789 258.832 74.3959 258.832 73.9374V18.1916C258.832 17.7331 259.166 17.34 259.556 17.34H327.275C327.666 17.34 328 17.7331 328 18.1916V74.0029C328 74.3959 327.666 74.789 327.275 74.789Z" fill="#8A6645"/>
<path d="M318.246 66.4041H268.585C268.251 66.4041 268.028 66.0766 268.028 65.749V26.4453C268.028 26.0523 268.307 25.7903 268.585 25.7903H318.246C318.581 25.7903 318.804 26.1178 318.804 26.4453V65.749C318.804 66.0766 318.525 66.4041 318.246 66.4041Z" fill="black"/>
<path d="M102.492 235.672C102.492 220.278 115.255 209.535 128.632 205.605C155.887 197.417 203.82 208.094 203.82 208.094L178.516 227.025C178.516 227.025 201.758 234.624 207.554 236.065C213.351 237.506 251.084 249.101 251.697 250.214C252.31 251.328 237.819 273.928 237.819 273.928C237.819 273.928 167.09 274.91 145.353 271.569C123.56 268.163 102.492 261.94 102.492 235.672Z" fill="black"/>
<path d="M175.283 227.156C186.765 230.301 203.876 236.131 211.567 238.947C219.426 241.83 222.436 244.646 222.436 244.646C222.436 244.646 208.112 259.385 201.814 288.601C198.246 305.043 191.447 326.988 190.276 331.835C190.109 332.556 190.22 333.342 190.666 333.931C192.06 335.7 195.237 339.499 198.637 341.661C202.817 344.347 210.397 347.36 211.177 346.05C211.177 346.05 244.452 307.794 257.382 285.85C270.369 263.905 282.296 246.088 277.169 230.759C272.989 218.247 263.681 210.845 248.242 206.98C224.61 201.15 197.132 203.443 197.132 203.443C197.132 203.443 195.515 208.225 189.273 216.741C184.145 223.881 175.06 227.156 175.283 227.156Z" fill="black"/>
<path d="M165.473 95.6199C162.798 95.6199 162.742 86.5145 162.742 85.4664C162.742 84.4183 162.798 75.313 165.473 75.313C168.149 75.313 168.204 84.4183 168.204 85.4664C168.26 86.449 168.149 95.6199 165.473 95.6199ZM165.473 77.0161C164.972 77.6057 164.191 80.619 164.191 85.4664C164.191 90.2484 164.972 93.3272 165.473 93.9168C165.975 93.3272 166.755 90.3139 166.755 85.4664C166.755 80.5535 165.975 77.5402 165.473 77.0161Z" fill="white"/>
<path d="M214.354 95.6199C211.679 95.6199 211.623 86.5145 211.623 85.4664C211.623 84.4183 211.679 75.313 214.354 75.313C217.029 75.313 217.085 84.4183 217.085 85.4664C217.085 86.449 217.029 95.6199 214.354 95.6199ZM214.354 77.0161C213.852 77.6057 213.072 80.619 213.072 85.4664C213.072 90.2484 213.852 93.3272 214.354 93.9168C214.856 93.3272 215.636 90.3139 215.636 85.4664C215.636 80.5535 214.856 77.5402 214.354 77.0161Z" fill="white"/>
<path d="M190.165 102.302C205.371 102.302 217.698 87.8134 217.698 69.9415C217.698 52.0695 205.371 37.5814 190.165 37.5814C174.958 37.5814 162.631 52.0695 162.631 69.9415C162.631 87.8134 174.958 102.302 190.165 102.302Z" fill="#FCB58A"/>
<path d="M162.073 72.2997C162.129 72.8237 162.129 73.3478 162.185 73.8063C162.185 73.8718 162.185 73.9373 162.241 74.0028C162.296 74.5924 162.352 75.1164 162.408 75.6405V75.706C162.464 76.2955 162.575 76.8851 162.687 77.4747C164.526 68.5658 171.381 61.9497 179.519 61.9497C180.522 61.9497 181.525 62.0152 182.473 62.2772C183.197 62.4737 183.978 62.6047 184.702 62.6047C189.83 62.6047 194.066 58.0849 194.623 52.1893C194.623 52.1893 194.679 52.1892 194.679 52.1237C194.623 52.7133 194.512 53.3684 194.512 54.0234C194.512 60.9016 199.249 66.4696 205.102 66.4696H205.157C210.898 67.8452 215.469 72.8237 217.141 79.3088C217.475 77.8677 217.754 76.361 217.977 74.9199C217.977 74.8544 217.977 74.7889 217.977 74.7234C218.032 74.1338 218.144 73.4788 218.144 72.8237C218.144 72.6272 218.2 72.4962 218.2 72.3652C218.255 71.6446 218.255 70.9241 218.255 70.2035C218.255 69.6139 218.255 68.9588 218.2 68.4348C218.2 68.2383 218.144 68.1073 218.144 67.9108C218.088 67.4522 218.088 67.0592 218.088 66.6661C218.088 66.4696 218.032 66.2731 218.032 66.0766C217.977 65.6835 217.977 65.2905 217.865 64.8974C217.81 64.7009 217.81 64.5045 217.81 64.3079C217.754 63.9149 217.698 63.5218 217.642 63.1288C217.587 62.9323 217.587 62.8012 217.531 62.6047C217.475 62.2117 217.364 61.7532 217.252 61.3602C217.196 61.2292 217.196 61.0326 217.141 60.9016C217.029 60.443 216.918 60.05 216.806 59.5914C216.751 59.4604 216.751 59.3949 216.695 59.2639C216.528 58.8054 216.416 58.2813 216.249 57.8883C216.193 57.8228 216.193 57.7573 216.193 57.6918C216.026 57.1677 215.803 56.6437 215.58 56.1197C213.183 50.0276 209.17 44.9836 204.266 41.6427C202.705 40.5946 201.089 39.6776 199.361 38.957C199.305 38.8915 199.249 38.8915 199.194 38.8915C198.692 38.695 198.19 38.4985 197.689 38.3019C197.633 38.2364 197.522 38.2365 197.41 38.2365C196.295 37.9089 195.181 37.6469 194.01 37.3848C193.843 37.3193 193.732 37.3194 193.564 37.3194C193.118 37.2538 192.728 37.1884 192.282 37.1229C192.115 37.1229 191.948 37.0573 191.781 37.0573C191.223 36.9918 190.61 36.9918 190.053 36.9918C174.503 36.9918 161.906 51.7962 161.906 70.0724C161.906 70.662 161.906 71.3171 161.962 71.9066C162.073 72.1032 162.073 72.1687 162.073 72.2997Z" fill="black"/>
<path d="M183.978 349.653C183.365 350.504 178.349 358.693 177.903 363.016C177.568 366.029 176.064 371.532 175.005 378.868C173.946 386.205 170.713 401.73 180.411 405.923C188.604 409.46 190.555 403.499 192.283 400.682C194.011 397.865 198.86 375.79 199.25 373.431C199.974 368.649 204.489 353.387 204.489 353.387C204.991 352.142 205.269 351.618 204.099 351.225C201.925 350.504 198.637 349.129 196.24 347.819C193.62 346.377 191.001 343.561 189.496 342.12C188.994 341.595 188.66 341.268 188.325 341.923C188.325 341.988 184.034 349.653 183.978 349.653Z" fill="black"/>
<path d="M145.966 147.108C137.438 156.082 130.639 167.218 129.97 181.105C129.301 195.386 136.602 206.325 147.248 212.09C150.425 213.858 154.215 213.138 156.11 209.339C157.726 206.063 156.946 200.626 153.769 198.923C146.746 195.124 141.897 189.49 143.012 179.795C144.071 170.755 149.589 163.746 155.107 157.982C161.349 151.431 152.153 140.623 145.966 147.108Z" fill="#FCB58A"/>
<path d="M221.823 157.851C224.665 162.24 227.118 166.891 229.18 171.804C230.908 175.996 233.249 180.909 232.803 185.756C231.855 195.779 222.492 201.216 215.803 205.474C208.502 210.125 214.967 223.357 222.325 218.64C232.468 212.155 243.337 203.705 245.344 189.228C246.403 181.76 244.563 175.013 241.944 168.266C239.491 161.847 236.649 155.755 232.97 150.121C230.796 146.911 227.397 145.077 224.108 147.37C221.433 149.335 219.649 154.575 221.823 157.851Z" fill="#F0A173"/>
<path d="M216.973 123.657C209.895 119.268 201.98 117.106 198.469 116.451C197.41 121.822 195.013 124.77 189.886 124.77C184.647 124.77 182.863 121.691 181.86 116.189C180.801 116.254 177.568 117.106 176.788 117.171C167.591 118.154 161.237 122.543 156.5 126.408C149.979 131.714 142.956 142.195 140.113 146.649C139.277 147.894 139.333 149.663 140.169 150.907C141.73 153.069 144.349 156.475 147.025 158.571C151.762 162.305 159.677 162.305 159.677 162.305L160.847 149.466C160.847 149.466 158.841 163.419 158.451 172.721C157.949 182.809 158.451 191.849 158.451 191.849L218.534 193.29C218.534 193.29 220.708 183.267 219.426 169.445C219.091 165.843 215.803 150.514 215.803 150.514L218.59 160.668C218.59 160.668 222.77 160.864 229.96 157.13C232.134 156.017 235.199 153.265 236.983 151.562C237.819 150.842 237.93 149.401 237.317 148.483C234.196 143.308 224.163 128.111 216.973 123.657Z" fill="black"/>
<path d="M190.165 102.236C187.266 102.236 184.48 101.712 181.86 100.729V106.756C184.48 107.738 187.378 107.738 190.276 107.476C194.178 107.018 195.85 106.166 198.469 104.856V100.729C195.905 101.712 193.119 102.236 190.165 102.236Z" fill="#E3996D"/>
<path d="M295.45 10.0688C295.283 10.0688 295.06 10.0033 294.893 9.74128C294.614 9.41375 294.725 8.88974 295.004 8.62771L300.466 3.45271C300.745 3.19068 301.191 3.25616 301.414 3.58369C301.692 3.91122 301.581 4.43532 301.302 4.69734L295.84 9.87227C295.784 10.0033 295.617 10.0688 295.45 10.0688Z" fill="white"/>
<path d="M302.882 6.2505C303.69 5.58876 303.675 3.92136 302.848 2.52621C302.021 1.13106 300.696 0.536454 299.887 1.19819C299.079 1.85993 299.094 3.5274 299.921 4.92255C300.748 6.3177 302.074 6.91224 302.882 6.2505Z" fill="white"/>
<path d="M189.83 223.291C199.417 225.912 209.115 227.942 218.646 230.759C223.383 232.135 228.121 233.707 232.747 235.672C233.806 236.131 234.921 236.589 235.924 237.048C236.425 237.31 236.983 237.506 237.54 237.768C237.93 237.965 238.878 238.227 239.157 238.62C239.602 239.34 238.265 240.782 237.93 241.306C237.094 242.419 236.314 243.533 235.534 244.646C223.718 261.416 212.905 279.168 204.043 298.361C199.138 309.039 194.902 320.044 191.446 331.442C190.945 333.014 193.119 333.735 193.62 332.163C199.918 311.135 209.171 291.418 219.872 273.142C225.278 263.905 231.075 254.996 237.206 246.35C237.93 245.236 238.711 244.188 239.491 243.14C240.216 242.157 240.996 241.24 241.33 239.995C241.609 238.882 241.497 237.637 240.773 236.786C240.048 235.934 238.822 235.541 237.875 235.148C233.249 232.921 228.455 231.152 223.606 229.58C212.682 226.043 201.479 223.75 190.443 220.737C188.994 220.409 188.437 222.898 189.83 223.291Z" fill="white"/>
<path d="M154.995 161.978C154.995 161.978 158.618 157.458 159.9 154.379C161.182 151.235 162.743 145.405 162.743 145.405C162.743 145.405 161.628 153.986 160.959 157.72C160.011 162.895 158.953 165.384 158.953 165.384L155.497 165.188C155.497 165.188 155.33 164.467 155.274 163.681C155.162 162.895 154.995 161.978 154.995 161.978Z" fill="#E0E0E0"/>
<path d="M221.823 163.55C221.823 163.55 218.701 158.637 217.698 155.362C216.695 152.086 215.747 146.06 215.747 146.06C215.747 146.06 216.026 154.772 216.305 158.506C216.751 163.812 217.587 166.432 217.587 166.432L221.042 166.629C221.042 166.629 221.265 165.908 221.432 165.122C221.6 164.401 221.823 163.55 221.823 163.55Z" fill="#E0E0E0"/>
<path d="M225 220.999H152.543C150.146 220.999 148.028 218.968 147.527 216.151L138.943 165.318C138.33 161.585 140.727 158.178 143.959 158.178H236.37C239.714 158.178 242.166 161.912 241.33 165.711L229.904 216.544C229.347 219.165 227.285 220.999 225 220.999Z" fill="#9C9C9C"/>
<path d="M197.577 191.39C197.299 195.91 193.954 199.644 190.164 199.644C186.374 199.644 183.086 195.975 182.751 191.455C182.417 186.936 185.761 183.202 190.164 183.202C194.568 183.136 197.912 186.805 197.577 191.39Z" fill="#E8E9FF"/>
<path d="M151.159 301.792H133.445V358.834H151.159V301.792Z" fill="black"/>
<path d="M133.445 301.792H106.668V358.834H133.445V301.792Z" fill="black"/>
<path d="M151.159 301.792L141.547 293.585L133.445 301.792H151.159Z" fill="black"/>
<path d="M106.668 301.792H133.445L141.547 293.585H117.139L106.668 301.792Z" fill="black"/>
<path d="M139.659 289.025H119.061C118.031 289.025 117.173 289.811 117.173 290.755V293.585H141.581V290.755C141.581 289.78 140.723 289.025 139.659 289.025Z" fill="black"/>
<path d="M133.445 316.005H106.668V343.237H133.445V316.005Z" fill="white"/>
<path d="M151.159 316.005H133.445V343.237H151.159V316.005Z" fill="white"/>
<path d="M61.6622 416.347C59.9114 415.435 59.3278 413.391 60.289 411.787L86.757 363.393C87.7526 361.758 90.0526 361.16 91.8377 362.104L96.2319 364.431C98.017 365.374 98.6006 367.481 97.5364 369.085L66.6743 415.152C65.6101 416.724 63.413 417.227 61.6622 416.347Z" fill="#8A6645"/>
<path d="M193.041 416.347C194.792 415.435 195.375 413.391 194.414 411.787L167.946 363.393C166.951 361.758 164.651 361.16 162.865 362.104L158.471 364.431C156.686 365.374 156.103 367.481 157.167 369.085L188.063 415.152C189.093 416.724 191.324 417.227 193.041 416.347Z" fill="#8A6645"/>
<path d="M194.861 370.311H59.8773C58.0921 370.311 56.616 368.99 56.616 367.324V361.852C56.616 360.217 58.0578 358.865 59.8773 358.865H194.861C196.646 358.865 198.122 360.186 198.122 361.852V367.324C198.088 368.99 196.646 370.311 194.861 370.311Z" fill="#8A6645"/>
<path d="M164.513 358.865H157.613C152.91 358.865 149.031 355.5 148.791 351.224L147.692 332.545C147.658 331.853 148.276 331.256 148.997 331.256H173.13C173.885 331.256 174.503 331.853 174.469 332.545L173.37 351.224C173.061 355.5 169.217 358.865 164.513 358.865Z" fill="#FFB167"/>
<path d="M174.194 335.501L174.023 338.363C176.872 338.897 179.001 341.193 179.001 343.96C179.001 346.947 176.495 349.4 173.302 349.652L173.13 352.513C178.108 352.356 182.125 348.582 182.125 343.96C182.09 339.683 178.657 336.13 174.194 335.501Z" fill="#FFB167"/>
<path d="M162.866 326.917C162.866 326.917 156.961 321.917 157.133 318.238C157.442 312.609 162.934 310.471 160.806 305.188C159.81 302.672 155.656 294.528 155.656 294.528C155.656 294.528 162.488 300.723 164.925 304.528C167.122 307.987 166.848 313.458 164.479 316.1C159.295 321.823 162.866 326.917 162.866 326.917Z" fill="#DCDCED"/>
<path d="M157.27 407.636H152.738C150.198 407.636 148.035 408.989 147.005 410.938V410.907L144.842 414.806H118.786L116.624 410.907V410.938C115.594 408.989 113.431 407.636 110.891 407.636H106.359C101.175 407.636 96.9529 411.473 96.9529 416.252V422.604C96.9529 427.353 101.141 431.22 106.359 431.22H110.891C113.431 431.22 115.594 429.868 116.624 427.919V427.95L118.786 424.051H144.842L147.005 427.95V427.919C148.035 429.868 150.198 431.22 152.738 431.22H157.27C162.453 431.22 166.676 427.384 166.676 422.604V416.252C166.642 411.504 162.453 407.636 157.27 407.636Z" fill="#4B7FFB"/>
<path d="M144.991 384.425H140.459C137.919 384.425 135.756 385.777 134.726 387.727V387.695L132.564 391.594H106.508L104.345 387.695V387.727C103.315 385.777 101.152 384.425 98.6118 384.425H94.0803C88.8966 384.425 84.6741 388.261 84.6741 393.041V399.393C84.6741 404.141 88.8622 408.009 94.0803 408.009H98.6118C101.152 408.009 103.315 406.657 104.345 404.707V404.738L106.508 400.839H132.564L134.726 404.738V404.707C135.756 406.657 137.919 408.009 140.459 408.009H144.991C150.175 408.009 154.397 404.172 154.397 399.393V393.041C154.397 388.293 150.175 384.425 144.991 384.425Z" fill="#4B7FFB"/>
<path d="M125.721 299.78C127.025 299.088 127.506 297.578 126.785 296.415C126.064 295.251 124.382 294.843 123.078 295.534C121.773 296.226 121.258 297.736 122.013 298.899C122.734 300.094 124.416 300.471 125.721 299.78Z" fill="#EBDBCD"/>
<path d="M121.842 299.088L122.769 299.685L126.064 295.692L125.309 295.188L121.842 299.088Z" fill="#EBDBCD"/>
<path d="M124.897 299.245C126.202 298.553 126.717 297.044 125.961 295.88C125.24 294.717 123.558 294.308 122.254 295C120.949 295.692 120.434 297.201 121.19 298.364C121.911 299.559 123.593 299.937 124.897 299.245Z" fill="#F8F1EB"/>
<path d="M131.179 358.865H84.3195C80.2343 358.865 76.2864 357.293 73.5057 354.557L73.0938 354.148H141.787C142.027 354.148 142.13 354.4 141.993 354.557C139.178 357.324 135.264 358.865 131.179 358.865Z" fill="#9C9C9C"/>
<path d="M100.214 354.148H89.2288C87.478 354.148 86.0361 352.827 86.0361 351.224V350.375C86.0361 346.287 89.7094 342.922 94.1722 342.922H95.2364C99.7336 342.922 103.372 346.287 103.372 350.375V351.255C103.407 352.827 101.965 354.148 100.214 354.148Z" fill="#D19673"/>
<path d="M113.191 354.148H93.8632C92.1124 354.148 90.6705 352.827 90.6705 351.224V348.865C90.6705 343.142 95.7856 338.457 102.034 338.457H104.986C111.234 338.457 116.349 343.142 116.349 348.865V351.224C116.418 352.827 114.976 354.148 113.191 354.148Z" fill="#E0A17B"/>
<path d="M121.773 354.148H102.446C100.695 354.148 99.2529 352.827 99.2529 351.224V348.677C99.2529 343.048 104.299 338.457 110.41 338.457H113.774C119.919 338.457 124.931 343.079 124.931 348.677V351.224C124.966 352.827 123.524 354.148 121.773 354.148Z" fill="#E8AA84"/>
<path d="M124.108 354.148H113.122C111.371 354.148 109.93 352.827 109.93 351.224V350.375C109.93 346.255 113.603 342.891 118.1 342.891H119.13C123.627 342.891 127.3 346.255 127.3 350.375V351.224C127.3 352.827 125.858 354.148 124.108 354.148Z" fill="#EDB593"/>
</g>
<defs>
<filter id="filter0_d" x="0" y="0.927795" width="332" height="438.293" filterUnits="userSpaceOnUse" color-interpolation-filters="sRGB">
<feFlood flood-opacity="0" result="BackgroundImageFix"/>
<feColorMatrix in="SourceAlpha" type="matrix" values="0 0 0 0 0 0 0 0 0 0 0 0 0 0 0 0 0 0 127 0"/>
<feOffset dy="4"/>
<feGaussianBlur stdDeviation="2"/>
<feColorMatrix type="matrix" values="0 0 0 0 0 0 0 0 0 0 0 0 0 0 0 0 0 0 0.25 0"/>
<feBlend mode="normal" in2="BackgroundImageFix" result="effect1_dropShadow"/>
<feBlend mode="normal" in="SourceGraphic" in2="effect1_dropShadow" result="shape"/>
</filter>
</defs>
</svg>
