<svg width="274" height="473" viewBox="0 0 274 473" fill="none" xmlns="http://www.w3.org/2000/svg">
<path d="M104.337 226.719C90.157 225.147 68.6159 216.302 62.0696 196.266C55.937 177.461 66.2172 158.631 68.4977 154.739C68.4977 154.739 59.7655 150.48 60.4626 141.556C61.1598 132.633 65.3546 131.859 65.3546 131.859C65.3546 131.859 57.3195 123.342 60.4626 111.325C63.6058 99.3091 67.1034 98.5359 67.1034 98.5359C67.1034 98.5359 61.4906 82.2739 70.2465 73.3632C79.0024 64.4524 86.3049 68.3312 86.3049 68.3312C86.3049 68.3312 97.4949 51.2698 112.171 53.2354C126.847 55.201 134.882 68.3312 134.882 68.3312C134.882 68.3312 133.133 52.0561 149.215 50.4967C154.686 49.9725 159.14 55.1748 161.09 58.2542C164.848 64.1773 163.453 71.45 162.484 72.97C161.09 75.3025 177.515 52.8292 196.385 71.0437C204.551 78.9062 204.763 93.5171 204.066 98.5622C203.995 99.1125 209.289 99.5187 213.519 103.594C217.371 107.329 220.136 114.667 220.857 117.157C222.251 122.045 223.126 129.959 221.897 135.371C221.048 139.212 219.233 142.707 216.662 145.448C216.662 145.448 221.897 152 213.519 164.436C211.281 167.579 210.231 171.563 210.589 175.548C210.943 179.479 215.977 186.031 217.005 194.274C217.265 196.331 216.379 209.907 210.376 218.293C204.373 226.68 193.254 230.703 190.808 230.703C181.024 230.703 176.132 224.492 176.132 224.492C176.132 224.492 170.543 225.278 163.134 221.176C138.297 207.378 125.003 229.012 104.337 226.719Z" fill="black"/>
<path d="M245.742 201.275L233.742 201.211C229.651 201.147 226.323 198.205 226.269 194.689V193.474C226.214 189.957 229.487 187.144 233.523 187.144L245.523 187.208C249.614 187.272 252.942 190.213 252.996 193.73V194.944C253.051 198.461 249.778 201.339 245.742 201.275Z" fill="#A73C28"/>
<path d="M37.7048 200.443L25.7047 200.38C21.6138 200.316 18.2865 197.374 18.232 193.858V192.643C18.1774 189.126 21.4501 186.312 25.4865 186.312L37.4865 186.376C41.5774 186.44 44.9048 189.382 44.9593 192.898V194.113C45.0139 197.63 41.7411 200.507 37.7048 200.443Z" fill="#A73C28"/>
<path d="M102.723 409.276C102.287 416.437 101.796 423.598 101.305 430.76C100.978 435.555 105.778 439.392 109.705 439.136C114.451 438.88 117.069 434.596 117.341 429.737C117.778 422.575 118.269 415.414 118.76 408.253C119.087 403.457 114.287 399.62 110.36 399.876C105.614 400.196 103.105 404.48 102.723 409.276Z" fill="#A73C28"/>
<path d="M161.305 411.514C162.287 418.611 163.214 425.708 164.196 432.806C164.85 437.538 170.25 439.967 174.014 438.689C178.596 437.09 180.232 432.294 179.578 427.499C178.596 420.401 177.669 413.304 176.687 406.206C176.032 401.475 170.632 399.045 166.869 400.324C162.287 401.922 160.65 406.782 161.305 411.514Z" fill="#A73C28"/>
<path d="M38.0318 400.835C23.1408 400.835 11.0318 399.237 10.5955 397.255L12.7773 427.691C12.7773 442.141 24.1227 453.907 37.9773 453.907C51.8319 453.907 63.1774 442.077 63.1774 427.691L65.3592 397.191C65.141 399.237 52.9773 400.835 38.0318 400.835Z" fill="#FFB167"/>
<path d="M38.0318 400.835C22.9227 400.835 10.65 399.173 10.5955 397.127V397.063C10.7046 395.017 22.9227 393.354 38.0318 393.354C53.0864 393.354 65.3046 395.017 65.4683 397.063V397.127C65.3592 399.173 53.1409 400.835 38.0318 400.835Z" fill="#E8D4C1"/>
<path d="M38.0318 400.196C25.3227 400.196 14.9591 398.789 14.9045 397.063V396.999C15.0136 395.272 25.3227 393.866 38.0318 393.866C50.741 393.866 61.0502 395.272 61.1592 396.999V397.063C61.1047 398.789 50.741 400.196 38.0318 400.196Z" fill="#BA9C7E"/>
<path d="M11.5226 410.235C13.268 410.299 15.0135 411.066 16.5408 412.792C19.3226 415.989 21.1226 420.913 23.359 424.621C24.2317 422.575 24.9953 420.529 25.6498 418.419C26.468 415.925 29.359 413.56 31.5954 415.606C33.9954 417.844 35.8499 420.273 37.3771 423.343C38.7408 426.028 39.8318 429.161 41.9591 431.143C43.9772 433.062 46.3227 433.637 47.1409 430.184C47.85 427.179 47.5772 423.982 48.4499 420.913C49.159 418.419 50.1954 415.798 52.4318 414.711C54.9954 413.432 57.5045 415.03 59.7954 416.373C61.1591 417.204 62.5227 418.035 63.8318 418.995L63.3954 425.389C61.0499 423.662 58.159 421.552 55.759 421.169C54.2317 420.913 54.3409 422.128 54.2318 423.79C54.1773 425.261 54.1772 426.795 54.0682 428.266C53.9045 431.335 53.5227 434.404 51.9954 436.898C48.6681 442.333 42.5045 442.077 38.1409 438.625C35.7954 436.77 34.1044 434.341 32.5771 431.527C32.0862 430.632 31.5953 429.673 31.1044 428.714C29.1953 433.829 26.3589 438.433 21.668 436.451C18.7225 435.236 16.8135 431.463 15.068 428.714C14.5226 427.882 13.5408 425.708 12.5044 423.854L11.5226 410.235Z" fill="#864C19"/>
<path d="M0.777327 296.867C1.37733 294.245 3.94095 293.862 5.52277 295.396C8.46823 298.274 9.99543 302.238 11.5773 306.138C13.2682 310.295 15.3409 314.067 17.7409 317.648C22.65 325.001 28.1047 331.779 31.7047 340.219C38.6865 356.524 40.3774 375.706 35.5229 393.162C35.3592 393.674 36.2865 390.924 34.8137 395.784C33.4501 400.132 28.1591 397.83 28.2137 392.715C28.2682 387.727 27.1228 383.06 25.2683 378.648C21.5592 369.888 16.8682 361.639 13.2136 352.816C9.50452 343.864 6.28633 334.72 3.66814 325.257C1.15904 316.177 -1.29541 306.458 0.777327 296.867Z" fill="#4C7378"/>
<path d="M35.032 245.714C36.9411 241.685 42.3957 244.435 41.3593 248.847C38.1411 261.763 40.432 275.383 42.4502 288.299C44.4684 301.471 46.8685 314.515 48.2321 327.814C50.6867 351.409 49.8684 377.88 37.1593 397.638C35.7957 399.748 32.9048 398.022 34.0502 395.464C35.3048 392.651 32.1411 374.3 30.7229 368.417C29.3047 362.343 27.8319 356.268 26.5774 350.194C24.0137 338.237 21.9411 326.088 21.4502 313.747C20.1956 289.769 25.2683 266.623 35.032 245.714Z" fill="#57848A"/>
<path d="M41.0865 376.794C42.5592 368.801 41.4683 360.233 42.941 352.304C44.3592 344.439 46.3229 336.51 49.432 329.349C52.3775 322.571 56.9047 317.712 62.2502 313.492C67.2684 309.527 73.1594 305.627 74.9594 298.338C75.9957 293.99 82.2685 294.629 81.8866 299.425C81.0139 309.144 77.5229 317.712 73.4865 326.152C69.1229 335.104 65.3593 343.672 63.2321 353.711C59.5775 370.911 56.4138 393.226 39.7228 398.534C37.5956 399.109 37.8683 393.994 41.0865 376.794Z" fill="#689399"/>
<path d="M37.541 202.362C49.7047 209.651 62.0866 213.871 75.8866 213.551C88.8139 213.232 101.359 209.203 108.668 195.584C113.468 186.568 101.305 178.256 96.5049 187.272C91.5958 196.479 81.7775 197.119 73.3775 197.055C63.0138 196.991 53.7956 193.602 44.632 188.103C36.6138 183.307 29.4683 197.566 37.541 202.362Z" fill="#A73C28"/>
<path d="M225.123 188.167C215.96 193.666 206.796 196.991 196.378 197.118C187.542 197.182 179.523 196.031 174.56 186.568C169.814 177.552 157.65 185.865 162.396 194.88C165.505 200.763 169.76 205.942 175.051 209.075C180.996 212.592 187.269 213.423 193.869 213.551C207.669 213.871 219.996 209.651 232.214 202.362C240.287 197.566 233.142 183.307 225.123 188.167Z" fill="#A73C28"/>
<path d="M267.723 255.241L262.923 285.933L241.869 265.536L267.723 255.241Z" fill="#FFB167"/>
<path d="M78.0683 33.8765C85.8683 33.8765 92.1956 26.4593 92.1956 17.3157C92.1956 8.17207 85.8683 0.754944 78.0683 0.754944C70.2683 0.754944 63.9409 8.17207 63.9409 17.3157C63.9409 26.4593 70.2683 33.8765 78.0683 33.8765Z" fill="#FFB167"/>
<path d="M91.4866 50.5651C91.3775 50.5651 91.2685 50.5012 91.1594 50.3094C91.1048 50.1175 91.1594 49.9257 91.323 49.7978L92.7957 49.0305L92.1412 47.3041C92.0867 47.1123 92.1411 46.9205 92.3047 46.7926C92.4684 46.7287 92.632 46.7926 92.7411 46.9844L93.6139 49.4142L91.4866 50.5651C91.5957 50.5651 91.5411 50.5651 91.4866 50.5651Z" fill="black"/>
<path d="M61.4863 65.9111C61.3772 65.9111 61.2682 65.8472 61.1591 65.6554C61.1046 65.4635 61.1591 65.2717 61.3228 65.1438L65.0864 63.2256C65.25 63.1616 65.4137 63.2256 65.5228 63.4174C65.5773 63.6092 65.5227 63.801 65.3591 63.9289L61.5955 65.8471C61.5955 65.9111 61.5409 65.9111 61.4863 65.9111ZM69.0136 62.0746C68.9045 62.0746 68.7955 62.0107 68.6864 61.8189C68.6319 61.6271 68.6863 61.4352 68.85 61.3073L72.6137 59.3891C72.7773 59.3252 72.941 59.3891 73.0501 59.581C73.1046 59.7728 73.0501 59.9646 72.8864 60.0924L69.1227 62.0107C69.0682 62.0746 69.0682 62.0746 69.0136 62.0746ZM76.4864 58.2381C76.3773 58.2381 76.2683 58.1742 76.1592 57.9824C76.1046 57.7906 76.1592 57.5987 76.3228 57.4709L80.0864 55.5526C80.2501 55.4887 80.4137 55.5527 80.5228 55.7445C80.5774 55.9363 80.5228 56.1281 80.3591 56.256L76.5956 58.1742C76.5956 58.2381 76.5409 58.2381 76.4864 58.2381ZM84.0137 54.3377C83.9046 54.3377 83.7956 54.2738 83.6865 54.0819C83.6319 53.8901 83.6864 53.6983 83.85 53.5705L87.6137 51.6522C87.7774 51.5883 87.941 51.6522 88.0501 51.844C88.1047 52.0358 88.0501 52.2277 87.8865 52.3556L84.1227 54.2738C84.0682 54.3377 84.0682 54.3377 84.0137 54.3377Z" fill="black"/>
<path d="M55.8136 68.8525L54.9409 66.4227C54.8863 66.2309 54.9409 66.039 55.1045 65.9111C55.2682 65.8472 55.4318 65.9112 55.5409 66.103L56.1954 67.8294L57.6681 67.0621C57.8318 66.9982 57.9954 67.0621 58.1045 67.2539C58.1591 67.4458 58.1045 67.6375 57.9409 67.7654L55.8136 68.8525Z" fill="black"/>
<path d="M53.6866 62.5861C53.5775 62.5861 53.4683 62.5222 53.3592 62.3303L51.8319 58.2381C51.7774 58.0462 51.832 57.8545 51.9956 57.7266C52.1592 57.6626 52.3229 57.7265 52.432 57.9184L53.9593 62.0106C54.0138 62.2024 53.9593 62.3943 53.7956 62.5222C53.7956 62.5861 53.7411 62.5861 53.6866 62.5861ZM50.6319 54.4016C50.5229 54.4016 50.4137 54.3377 50.3046 54.1459L48.7775 50.0536C48.7229 49.8618 48.7773 49.67 48.941 49.5421C49.1046 49.4781 49.2683 49.5421 49.3774 49.7339L50.9047 53.8262C50.9592 54.018 50.9047 54.2098 50.741 54.3377C50.741 54.4016 50.6865 54.4016 50.6319 54.4016ZM47.5773 46.2811C47.4682 46.2811 47.3592 46.2171 47.2501 46.0253L45.7228 41.9331C45.6683 41.7412 45.7229 41.5495 45.8865 41.4216C46.0501 41.3576 46.2138 41.4215 46.3229 41.6133L47.8501 45.7056C47.9046 45.8974 47.8502 46.0893 47.6865 46.2172C47.6865 46.2811 47.6319 46.2811 47.5773 46.2811Z" fill="black"/>
<path d="M44.5774 38.0964C44.4683 38.0964 44.3593 38.0325 44.2502 37.8407L43.3774 35.4109L45.4502 34.3879C45.6138 34.3239 45.7775 34.3878 45.8866 34.5797C45.9411 34.7715 45.8866 34.9633 45.7229 35.0912L44.2502 35.8585L44.9047 37.5849C44.9593 37.7768 44.9047 37.9685 44.7411 38.0964C44.632 38.0964 44.5774 38.0964 44.5774 38.0964Z" fill="black"/>
<path d="M49.2686 33.2369C49.1595 33.2369 49.0503 33.173 48.9412 32.9812C48.8867 32.7893 48.9413 32.5976 49.1049 32.4697L52.8686 30.5514C53.0323 30.4875 53.1958 30.5514 53.3049 30.7432C53.3594 30.935 53.305 31.1269 53.1413 31.2548L49.3776 33.173C49.3776 33.173 49.3231 33.2369 49.2686 33.2369ZM56.7959 29.3365C56.6868 29.3365 56.5776 29.2726 56.4685 29.0808C56.414 28.8889 56.4686 28.6972 56.6322 28.5693L60.3958 26.651C60.5594 26.5871 60.7231 26.651 60.8322 26.8428C60.8867 27.0346 60.8322 27.2265 60.6685 27.3544L56.9049 29.2726C56.9049 29.3366 56.7959 29.3365 56.7959 29.3365ZM64.2686 25.5001C64.1595 25.5001 64.0504 25.4361 63.9413 25.2443C63.8867 25.0525 63.9413 24.8607 64.1049 24.7328L67.8687 22.8146C68.0323 22.7506 68.1958 22.8145 68.3049 23.0063C68.3595 23.1982 68.305 23.39 68.1414 23.5179L64.3777 25.4361C64.3777 25.5001 64.3777 25.5001 64.2686 25.5001ZM71.7959 21.6636C71.6868 21.6636 71.5777 21.5996 71.4686 21.4078C71.414 21.216 71.4686 21.0242 71.6323 20.8963L75.3958 18.9781C75.5595 18.9141 75.7231 18.978 75.8322 19.1699C75.8868 19.3617 75.8322 19.5535 75.6686 19.6814L71.905 21.5997C71.905 21.6636 71.8505 21.6636 71.7959 21.6636Z" fill="black"/>
<path d="M81.832 18.9782C81.723 18.9782 81.6139 18.9142 81.5049 18.7224L80.8502 16.9959L79.3775 17.7633C79.2139 17.8272 79.0502 17.7632 78.9411 17.5714C78.8866 17.3796 78.9411 17.1878 79.1048 17.0599L81.1775 16.0368L82.0503 18.4666C82.1049 18.6584 82.0503 18.8503 81.8866 18.9782C81.9412 18.9782 81.8866 18.9782 81.832 18.9782Z" fill="black"/>
<path d="M90.9412 43.5315C90.8321 43.5315 90.7231 43.4677 90.614 43.2758L89.0867 39.1836C89.0321 38.9918 89.0867 38.7999 89.2503 38.672C89.414 38.5441 89.5776 38.6721 89.6867 38.8639L91.2139 42.9561C91.2684 43.148 91.214 43.3397 91.0504 43.4676C91.1049 43.4676 90.9957 43.5315 90.9412 43.5315ZM87.9412 35.2832C87.8321 35.2832 87.7231 35.2192 87.614 35.0274L86.0867 30.9352C86.0321 30.7433 86.0867 30.5515 86.2503 30.4236C86.414 30.3597 86.5776 30.4236 86.6867 30.6154L88.2139 34.7077C88.2684 34.8995 88.214 35.0913 88.0504 35.2192C87.9958 35.2831 87.9412 35.2832 87.9412 35.2832ZM84.8867 27.1626C84.7776 27.1626 84.6684 27.0986 84.5594 26.9068L83.032 22.8146C82.9775 22.6228 83.0321 22.431 83.1957 22.3031C83.3593 22.2391 83.523 22.3031 83.6321 22.4949L85.1594 26.5871C85.214 26.7789 85.1594 26.9708 84.9957 27.0987C84.9412 27.1626 84.9412 27.1626 84.8867 27.1626Z" fill="black"/>
<path d="M248.087 295.204L246.342 294.437C246.178 294.373 246.123 294.181 246.178 294.053C246.232 293.862 246.396 293.798 246.505 293.862L247.76 294.373L248.196 292.902C248.251 292.711 248.414 292.647 248.523 292.711C248.687 292.775 248.742 292.966 248.687 293.094L248.087 295.204Z" fill="black"/>
<path d="M243.669 293.286C243.614 293.286 243.614 293.286 243.614 293.286L240.941 292.135C240.778 292.071 240.723 291.879 240.778 291.752C240.832 291.56 240.996 291.496 241.105 291.56L243.778 292.711C243.942 292.775 243.996 292.966 243.941 293.094C243.941 293.222 243.832 293.286 243.669 293.286ZM238.323 290.92C238.269 290.92 238.269 290.92 238.269 290.92L235.596 289.769C235.432 289.705 235.378 289.514 235.432 289.386C235.487 289.194 235.65 289.13 235.76 289.194L238.432 290.345C238.596 290.409 238.651 290.601 238.596 290.728C238.487 290.792 238.432 290.92 238.323 290.92ZM232.869 288.554C232.814 288.554 232.814 288.554 232.814 288.554L230.141 287.403C229.978 287.34 229.923 287.148 229.978 287.02C230.032 286.828 230.196 286.764 230.305 286.828L232.978 287.979C233.141 288.043 233.196 288.235 233.141 288.363C233.141 288.49 232.978 288.554 232.869 288.554ZM227.469 286.189C227.414 286.189 227.414 286.189 227.414 286.189L224.741 285.038C224.578 284.974 224.523 284.782 224.578 284.654C224.632 284.462 224.796 284.398 224.905 284.462L227.578 285.613C227.741 285.677 227.796 285.869 227.741 285.997C227.687 286.061 227.578 286.189 227.469 286.189Z" fill="black"/>
<path d="M222.069 283.823C222.014 283.823 222.014 283.823 222.014 283.823L220.269 283.056L220.923 281.009C220.978 280.818 221.142 280.754 221.251 280.818C221.414 280.882 221.469 281.073 221.414 281.201L220.978 282.672L222.232 283.183C222.396 283.247 222.451 283.439 222.396 283.567C222.287 283.759 222.178 283.823 222.069 283.823Z" fill="black"/>
<path d="M222.178 278.26C222.124 278.26 222.123 278.26 222.123 278.26C221.96 278.196 221.905 278.004 221.96 277.876L222.942 274.743C222.996 274.551 223.16 274.487 223.269 274.551C223.433 274.615 223.487 274.807 223.433 274.935L222.451 278.068C222.342 278.132 222.233 278.26 222.178 278.26ZM224.142 271.93C224.087 271.93 224.087 271.93 224.087 271.93C223.924 271.866 223.869 271.674 223.923 271.546L224.905 268.413C224.96 268.221 225.124 268.157 225.233 268.221C225.396 268.285 225.451 268.477 225.396 268.605L224.414 271.738C224.36 271.866 224.251 271.93 224.142 271.93ZM226.16 265.6C226.105 265.6 226.105 265.6 226.105 265.6C225.942 265.536 225.887 265.344 225.942 265.216L226.923 262.083C226.978 261.891 227.142 261.827 227.251 261.891C227.414 261.955 227.469 262.147 227.414 262.275L226.433 265.408C226.378 265.472 226.269 265.6 226.16 265.6ZM228.178 259.205C228.124 259.205 228.123 259.205 228.123 259.205C227.96 259.141 227.905 258.95 227.96 258.822L228.942 255.689C228.996 255.497 229.16 255.433 229.269 255.497C229.433 255.561 229.487 255.753 229.433 255.88L228.451 259.014C228.396 259.205 228.287 259.205 228.178 259.205Z" fill="black"/>
<path d="M230.196 252.939C230.141 252.939 230.141 252.939 230.141 252.939C229.978 252.875 229.923 252.683 229.978 252.555L230.632 250.509L232.378 251.277C232.541 251.341 232.596 251.532 232.541 251.66C232.487 251.852 232.323 251.916 232.214 251.852L230.96 251.341L230.523 252.811C230.414 252.811 230.305 252.939 230.196 252.939Z" fill="black"/>
<path d="M253.869 261.251C253.814 261.251 253.814 261.251 253.814 261.251L251.142 260.1C250.978 260.037 250.924 259.845 250.978 259.717C251.033 259.525 251.196 259.461 251.305 259.525L253.978 260.676C254.142 260.74 254.196 260.932 254.142 261.06C254.087 261.188 253.978 261.251 253.869 261.251ZM248.469 258.886C248.414 258.886 248.414 258.886 248.414 258.886L245.742 257.735C245.578 257.671 245.523 257.479 245.578 257.351C245.633 257.159 245.796 257.095 245.905 257.159L248.578 258.31C248.742 258.374 248.796 258.566 248.742 258.694C248.687 258.822 248.578 258.886 248.469 258.886ZM243.069 256.52C243.014 256.52 243.014 256.52 243.014 256.52L240.342 255.369C240.178 255.305 240.123 255.113 240.178 254.985C240.233 254.793 240.396 254.729 240.505 254.793L243.178 255.944C243.342 256.008 243.396 256.2 243.342 256.328C243.287 256.456 243.178 256.52 243.069 256.52ZM237.669 254.154C237.614 254.154 237.614 254.154 237.614 254.154L234.942 253.003C234.778 252.939 234.723 252.747 234.778 252.619C234.833 252.428 234.996 252.364 235.105 252.428L237.778 253.578C237.942 253.642 237.996 253.834 237.942 253.962C237.887 254.09 237.778 254.154 237.669 254.154Z" fill="black"/>
<path d="M257.523 264.832C257.469 264.832 257.469 264.832 257.469 264.832C257.305 264.768 257.251 264.576 257.305 264.449L257.742 262.978L256.487 262.466C256.323 262.402 256.269 262.211 256.323 262.083C256.378 261.891 256.542 261.827 256.651 261.891L258.396 262.658L257.742 264.704C257.742 264.768 257.633 264.832 257.523 264.832Z" fill="black"/>
<path d="M249.451 290.217C249.396 290.217 249.396 290.217 249.396 290.217C249.233 290.153 249.178 289.961 249.233 289.833L250.214 286.7C250.269 286.508 250.433 286.444 250.542 286.508C250.705 286.572 250.76 286.764 250.705 286.892L249.723 290.025C249.669 290.089 249.56 290.217 249.451 290.217ZM251.469 283.823C251.414 283.823 251.414 283.823 251.414 283.823C251.251 283.759 251.196 283.567 251.251 283.439L252.233 280.306C252.287 280.114 252.451 280.05 252.56 280.114C252.723 280.178 252.778 280.37 252.723 280.498L251.742 283.631C251.687 283.759 251.578 283.823 251.469 283.823ZM253.487 277.557C253.433 277.557 253.433 277.557 253.433 277.557C253.269 277.493 253.214 277.301 253.269 277.173L254.251 274.04C254.305 273.848 254.469 273.784 254.578 273.848C254.742 273.912 254.796 274.104 254.742 274.232L253.76 277.365C253.705 277.429 253.596 277.557 253.487 277.557ZM255.505 271.162C255.451 271.162 255.451 271.162 255.451 271.162C255.287 271.099 255.233 270.907 255.287 270.779L256.269 267.646C256.324 267.454 256.487 267.39 256.596 267.454C256.76 267.518 256.814 267.71 256.76 267.838L255.778 270.971C255.724 271.099 255.614 271.162 255.505 271.162Z" fill="black"/>
<path d="M146.578 136.694H130.923V167.897C130.923 170.519 132.723 172.629 134.96 172.629H142.541C144.778 172.629 146.578 170.519 146.578 167.897V136.694Z" fill="#A73C28"/>
<path d="M138.778 143.536C153.069 143.536 164.632 129.98 164.632 113.228C164.632 96.4749 153.069 82.9194 138.778 82.9194C124.487 82.9194 112.923 96.4749 112.923 113.228C112.923 129.98 124.487 143.536 138.778 143.536Z" fill="#A73C28"/>
<path d="M112.323 115.401C112.378 115.913 112.378 116.361 112.432 116.872C112.432 116.936 112.432 117 112.432 117.064C112.487 117.575 112.541 118.087 112.651 118.662V118.726C112.705 119.238 112.869 119.813 112.923 120.389C114.669 112.013 121.051 105.81 128.742 105.81C129.723 105.81 130.651 105.874 131.523 106.066C132.232 106.258 132.887 106.322 133.651 106.322C138.451 106.322 142.433 102.038 142.978 96.5388C142.978 96.5388 143.032 96.5388 143.032 96.4748C142.978 97.0503 142.923 97.6257 142.923 98.2012C142.923 104.659 147.396 109.902 152.905 109.902H152.96C158.36 111.181 162.669 115.849 164.251 121.923C164.578 120.581 164.851 119.174 165.014 117.767C165.014 117.703 165.014 117.703 165.014 117.575C165.069 117 165.123 116.424 165.178 115.785C165.178 115.657 165.233 115.465 165.233 115.338C165.287 114.634 165.287 113.995 165.287 113.291C165.287 112.716 165.287 112.14 165.233 111.629C165.233 111.437 165.178 111.309 165.178 111.117C165.123 110.734 165.123 110.286 165.123 109.966C165.123 109.775 165.069 109.583 165.069 109.455C165.014 109.071 165.014 108.688 164.96 108.304C164.905 108.112 164.905 107.92 164.905 107.792C164.851 107.409 164.796 107.025 164.687 106.642C164.633 106.45 164.633 106.322 164.633 106.13C164.578 105.746 164.469 105.363 164.36 104.979C164.305 104.851 164.305 104.723 164.251 104.595C164.142 104.212 164.033 103.764 163.923 103.381C163.869 103.317 163.869 103.125 163.869 103.061C163.76 102.613 163.596 102.166 163.433 101.782C163.378 101.718 163.378 101.654 163.378 101.59C163.214 101.079 163.051 100.567 162.833 100.119C160.542 94.4287 156.833 89.6331 152.196 86.5C150.723 85.5409 149.196 84.6457 147.56 84.0063C147.505 84.0063 147.451 83.9424 147.396 83.9424C146.96 83.7505 146.469 83.5587 145.978 83.4308C145.923 83.3669 145.814 83.3669 145.76 83.3669C144.723 83.0472 143.633 82.7914 142.596 82.5996C142.433 82.5357 142.323 82.5356 142.16 82.5356C141.723 82.4717 141.342 82.4717 140.905 82.4078C140.742 82.4078 140.578 82.3438 140.469 82.3438C139.923 82.2799 139.378 82.2799 138.832 82.2799C124.214 82.2799 112.378 96.1552 112.378 113.291C112.378 113.867 112.378 114.442 112.432 115.018C112.323 115.21 112.323 115.337 112.323 115.401Z" fill="black"/>
<path d="M163.978 163.613C157.378 159.009 149.851 157.411 146.578 156.835C145.542 161.887 143.36 164.7 138.505 164.7C133.596 164.7 131.905 161.823 130.978 156.644C129.996 156.708 126.942 157.411 126.232 157.603C117.287 159.649 113.687 162.334 109.214 166.235C102.341 172.245 95.5778 184.778 94.1596 187.655C93.9414 188.039 93.9414 188.486 94.1596 188.806C94.9778 190.277 97.2141 193.985 100.378 196.415C104.85 199.868 110.142 201.786 110.142 201.786C110.142 201.786 112.269 197.182 112.923 195.456C113.741 193.154 115.978 185.417 115.978 185.417C115.978 185.417 113.96 190.596 113.796 195.967C113.687 200.891 115.105 206.454 114.996 209.651C114.669 217.068 112.814 223.462 112.16 226.404C111.996 227.107 112.378 227.81 112.978 227.938C116.414 228.833 126.614 231.519 137.032 231.519C150.505 231.519 159.778 229.792 163.051 229.217C163.651 229.089 164.033 228.386 163.869 227.682C163.323 225.189 162.396 220.841 161.469 211.186C160.76 203.64 161.523 202.17 161.469 196.863C161.469 192.962 160.105 185.097 160.105 185.097L161.414 200.06C161.414 200.06 166.16 200.316 172.923 196.863C175.269 195.648 178.214 192.515 179.469 191.108C179.796 190.724 179.905 190.085 179.687 189.573C177.942 185.417 170.414 168.153 163.978 163.613Z" fill="black"/>
<path d="M138.778 143.536C136.05 143.536 133.432 143.024 130.978 142.129V147.82C133.432 148.715 136.105 148.779 138.887 148.459C142.541 148.076 144.123 147.244 146.578 145.966V142.129C144.123 143.024 141.505 143.536 138.778 143.536Z" fill="#A73C28"/>
<path d="M116.523 228.897C116.523 228.897 129.287 231.391 138.232 231.391C147.669 231.391 159.396 229.792 159.396 229.792C159.396 229.792 160.432 237.657 160.869 239.384C161.305 241.11 153.123 244.499 138.614 244.179C119.578 243.796 115.05 240.598 115.05 239.703C114.941 239.064 116.523 228.897 116.523 228.897Z" fill="#A73C28"/>
<path d="M165.505 244.627C177.287 272.122 182.85 289.386 186.014 326.28C188.687 357.291 185.305 398.725 184.76 422.383C184.76 423.087 184.596 423.854 184.269 424.43C183.287 426.22 177.178 427.691 175.487 427.883C166.978 428.586 159.014 427.115 158.25 423.598C153.887 402.754 150.45 380.822 147.996 359.082C145.978 341.05 143.632 320.973 142.269 306.138C142.159 304.923 140.632 304.86 140.523 306.138C140.305 308.632 140.032 322.443 139.705 326.536C138.832 338.173 137.196 349.618 135.614 361.128C133.05 379.415 127.05 405.247 122.468 422.639C122.141 423.79 121.105 425.453 119.959 425.645C117.941 426.028 113.032 426.476 110.468 426.284C106.65 425.9 98.6866 424.621 98.2503 422.383C92.4684 394.185 92.3047 339.899 100.65 283.439C102.668 270.012 107.25 254.985 111.505 245.97C111.505 245.97 125.141 249.103 137.687 249.103C152.741 248.975 165.505 244.627 165.505 244.627Z" fill="black"/>
<path d="M114.941 239.767C114.941 239.767 113.468 240.151 112.541 242.005C111.668 243.796 111.45 245.97 111.45 245.97C111.45 245.97 121.323 249.423 140.032 249.998C158.141 250.51 165.505 244.691 165.505 244.691C165.505 244.691 164.85 242.325 163.323 241.238C161.796 240.215 160.759 239.512 160.759 239.512C160.759 239.512 155.087 245.394 137.85 243.987C120.614 242.389 114.941 239.767 114.941 239.767Z" fill="black"/>
<path d="M61.1048 165.979H36.6139V175.57H61.1048V165.979Z" fill="#F8D7BC"/>
<path d="M62.1408 165.276V165.979H36.5588V175.57H62.1408V176.274H9.55872V165.212H62.1408V165.276Z" fill="#FF7A82"/>
<path d="M28.9226 192.771H65.0864V177.297H28.9226C27.1226 177.297 25.7045 179.023 25.7045 181.069V188.934C25.7045 191.108 27.1226 192.771 28.9226 192.771Z" fill="#F8ECE2"/>
<path d="M7.54077 176.338H66.7228C66.9409 176.338 67.1591 176.593 67.1591 176.849C67.1591 177.105 66.9409 177.361 66.7228 177.361H59.4682H32.3044C28.6499 177.361 25.7045 180.814 25.7045 185.098C25.7045 189.382 28.6499 192.834 32.3044 192.834H65.85H66.7228C66.9409 192.834 67.1591 193.09 67.1591 193.346C67.1591 193.602 66.9409 193.858 66.7228 193.858H7.48617C3.83161 193.858 0.88623 190.405 0.88623 186.121V184.202C0.940776 179.79 3.88621 176.338 7.54077 176.338Z" fill="#2B31BA"/>
<path d="M65.1412 179.79H30.8319V180.302H65.1412V179.79Z" fill="#EBD0BE"/>
<path d="M65.141 186.185H28.3228V186.696H65.141V186.185Z" fill="#EBD0BE"/>
<path d="M65.1408 189.509H32.8497V190.021H65.1408V189.509Z" fill="#EBD0BE"/>
<path d="M65.1413 183.179H29.4139V183.691H65.1413V183.179Z" fill="#EBD0BE"/>
<path d="M37.0504 164.892H14.5231V159.329H37.0504C37.705 159.329 38.1958 159.905 38.1958 160.672V163.485C38.1958 164.253 37.705 164.892 37.0504 164.892Z" fill="#F8E7D8"/>
<path d="M51.0684 158.946H13.5955C13.541 158.946 13.4319 159.01 13.4319 159.137C13.4319 159.265 13.4865 159.329 13.5955 159.329H35.7956C37.1047 159.329 38.1411 160.608 38.1411 162.079C38.1411 163.613 37.0501 164.828 35.7956 164.828H13.5955C13.541 164.828 13.4319 164.892 13.4319 165.02C13.4319 165.084 13.4865 165.212 13.5955 165.212H51.0684C52.3775 165.212 53.4138 163.933 53.4138 162.462V161.631C53.4138 160.16 52.3775 158.946 51.0684 158.946Z" fill="#FF5856"/>
<path d="M108.232 433.701C113.632 433.765 117.123 431.783 117.123 431.783C117.123 431.783 119.305 437.218 119.741 440.095C120.178 442.909 121.432 452.564 119.523 454.354C117.505 456.336 117.887 455.825 115.269 457.104C111.614 458.894 110.032 458.063 105.069 461.004C103.214 462.155 95.2503 470.851 87.1776 471.618C80.3594 472.322 78.5594 468.485 77.7412 466.375C76.923 464.265 78.3957 460.173 83.1957 455.953C89.0321 450.837 94.8685 443.548 96.0686 441.694C99.6686 436.003 101.305 430.76 101.305 430.76C101.305 430.76 102.669 433.573 108.232 433.701Z" fill="black"/>
<path d="M172.705 434.34C167.305 434.404 164.087 432.358 164.087 432.358C164.087 432.358 161.687 436.515 160.814 441.822C160.378 444.635 159.505 453.203 161.414 455.057C163.432 457.04 163.05 456.528 165.668 457.807C169.323 459.597 170.905 458.766 175.869 461.707C177.723 462.858 185.687 471.618 193.759 472.322C198.669 472.769 202.378 469.188 203.196 467.078C204.014 464.968 204.069 460.62 198.014 455.889C191.96 451.157 184.814 443.612 183.887 441.566C182.469 438.433 179.632 431.399 179.632 431.399C179.632 431.399 178.269 434.212 172.705 434.34Z" fill="black"/>
<path d="M207.559 171.862C208.923 168.409 212.741 165.531 215.632 165.787C218.523 166.043 217.596 166.171 218.523 166.043C219.45 165.979 220.869 164.828 222.778 165.531C224.905 166.299 229.487 169.112 229.541 175.315C229.596 180.622 226.323 186.696 220.323 188.103C214.323 189.509 210.287 186.888 208.487 183.883C206.414 180.366 206.25 175.123 207.559 171.862Z" fill="#FF5856"/>
<path d="M216.942 170.135C216.942 170.135 216.505 162.142 219.233 158.754C222.287 154.981 226.324 151.528 226.051 153.766C225.996 154.278 226.651 162.015 224.796 164.892C221.96 169.368 216.942 170.135 216.942 170.135Z" fill="#4C7378"/>
<path d="M216.178 169.815C216.178 169.815 215.632 166.363 215.142 164.444C214.051 160.48 213.396 158.562 213.396 158.562L216.396 157.794C216.396 157.794 217.487 162.462 217.705 164.316C218.087 167.514 217.869 169.624 217.869 169.624C217.869 169.624 217.487 170.327 216.941 170.263C216.287 170.327 216.178 169.815 216.178 169.815Z" fill="#6B4D3A"/>
<path d="M214.978 159.137C215.796 158.945 216.451 158.434 216.342 157.986C216.287 157.539 215.523 157.283 214.705 157.475C213.887 157.667 213.232 158.178 213.342 158.626C213.396 159.073 214.16 159.265 214.978 159.137Z" fill="#8A634B"/>
<path d="M272.96 193.73H202.978C202.378 193.73 201.887 193.154 201.887 192.451V189.19C201.887 188.486 202.378 187.911 202.978 187.911H272.905C273.505 187.911 273.996 188.486 273.996 189.19V192.451C274.051 193.154 273.505 193.73 272.96 193.73Z" fill="#C5C6E3"/>
<path d="M237.396 186.952H222.069V180.622H237.396C237.832 180.622 238.105 181.005 238.105 181.453V185.993C238.214 186.504 237.832 186.952 237.396 186.952Z" fill="#F8D0B3"/>
<path d="M264.996 179.599H234.614H221.25H220.814C220.596 179.599 220.378 179.854 220.378 180.11C220.378 180.366 220.596 180.622 220.814 180.622H222.069H236.578C237.45 180.622 238.051 181.453 238.051 182.348V185.161C238.051 186.184 237.341 186.952 236.578 186.952H233.251H220.869C220.65 186.952 220.432 187.208 220.432 187.463C220.432 187.719 220.65 187.975 220.869 187.975H221.196H234.614H264.887C265.76 187.975 266.36 187.144 266.36 186.248V181.517C266.469 180.366 265.814 179.599 264.996 179.599Z" fill="#FF7A82"/>
<path d="M244.869 179.151H220.16V173.077H244.869C245.578 173.077 246.178 173.78 246.178 174.611V177.616C246.178 178.512 245.632 179.151 244.869 179.151Z" fill="#F8E7D8"/>
<path d="M260.36 172.629H219.123C219.014 172.629 218.905 172.693 218.905 172.885C218.905 173.013 218.96 173.141 219.123 173.141H243.56C244.978 173.141 246.178 174.483 246.178 176.21C246.178 177.872 245.033 179.279 243.56 179.279H219.123C219.014 179.279 218.905 179.343 218.905 179.535C218.905 179.663 218.96 179.79 219.123 179.79H260.36C261.778 179.79 262.978 178.448 262.978 176.721V175.826C262.924 173.972 261.778 172.629 260.36 172.629Z" fill="#4E53BA"/>
<path d="M238.978 177.361H220.16V177.105H238.978C239.032 177.105 239.087 177.169 239.087 177.233C239.087 177.297 239.032 177.361 238.978 177.361Z" fill="#DEBCA7"/>
<path d="M243.287 175.379H220.16V175.123H243.287C243.341 175.123 243.396 175.187 243.396 175.251C243.396 175.315 243.396 175.379 243.287 175.379Z" fill="#DEBCA7"/>
<path d="M209.25 83.2393C210.014 81.4489 207.45 78.1239 203.523 75.7581C199.596 73.3923 195.723 72.8808 194.96 74.6711C194.196 76.4615 196.76 79.7864 200.687 82.1522C204.669 84.5181 208.487 85.0296 209.25 83.2393Z" fill="white"/>
<path d="M196.432 71.6657C197.905 68.5326 199.105 65.3356 199.705 61.8828C200.96 54.4016 199.269 45.7056 203.305 39.823C206.251 35.539 211.432 34.2601 216.069 35.0274C221.742 35.9865 227.087 39.823 229.705 45.7695C232.269 51.716 231.614 59.6448 227.578 64.3125C224.141 68.2129 219.014 69.4917 215.469 73.2003C213.451 75.2464 212.032 77.9959 210.56 80.6175L210.069 81.4488C199.105 80.042 196.432 71.6657 196.432 71.6657Z" fill="#F8D1AD"/>
<path d="M215.742 60.0924C215.305 58.1102 213.833 58.1742 212.523 58.8775C212.196 57.7905 211.705 56.3838 210.778 55.9362C209.687 55.4247 208.487 56.3199 207.614 57.0872C205.76 58.7497 204.342 61.1795 203.523 63.7371C202.651 66.2308 202.269 68.9803 201.505 71.5379C201.178 72.561 202.596 73.0085 202.923 71.9855C203.905 68.7245 204.287 65.2077 205.814 62.2025C206.632 60.54 207.887 58.6218 209.469 57.8545C209.96 57.5987 210.342 57.5348 210.669 58.1102C210.942 58.5578 211.105 59.1333 211.269 59.5809C211.269 59.6449 211.323 59.6448 211.323 59.7088C211.105 59.8367 210.996 59.9645 210.832 60.0924C209.305 61.3712 207.341 63.7371 207.396 66.1029C207.396 67.1899 207.996 68.085 208.923 68.149C209.96 68.2129 210.996 67.3178 211.651 66.4226C212.905 64.7601 213.287 62.5861 213.014 60.476C213.342 60.2203 213.669 60.0924 213.996 60.0924C214.923 60.0285 214.487 61.7549 214.378 62.3303C213.942 64.2486 212.96 65.975 212.032 67.6375C211.323 68.9163 210.723 70.259 209.905 71.3461C208.978 72.6249 207.778 73.4562 206.578 74.3513C205.76 74.9268 206.523 76.3974 207.287 75.8219C208.651 74.7989 210.069 73.7758 211.105 72.2412C212.196 70.6427 213.123 68.8524 214.051 67.1259C214.869 65.2716 216.287 62.3943 215.742 60.0924ZM211.378 63.0337C211.16 63.9289 210.832 64.7601 210.287 65.4635C209.96 65.8471 208.542 67.1899 208.651 65.975C208.705 65.2078 209.251 64.3765 209.632 63.7371C210.123 62.9059 210.778 62.2025 211.487 61.5631C211.487 62.0107 211.487 62.5222 211.378 63.0337Z" fill="#010101"/>
<path d="M200.741 82.152C197.141 80.042 194.741 77.0367 194.851 75.1824L193.051 82.6636C192.451 84.1343 194.523 86.8198 197.687 88.738C200.851 90.6563 204.014 91.1039 204.614 89.6332C204.669 89.5693 204.669 89.5053 204.669 89.3774L208.923 83.6227C207.778 84.9016 204.342 84.326 200.741 82.152Z" fill="#FFB167"/>
<path d="M161.032 24.6688C160.978 24.6688 160.978 24.6688 160.923 24.6048C160.759 24.5409 160.705 24.2852 160.759 24.0934C161.032 23.39 161.359 22.6866 161.741 22.0472C161.85 21.8554 162.068 21.7914 162.178 21.9833C162.341 22.1111 162.396 22.3669 162.232 22.4948C161.85 23.0703 161.523 23.7097 161.305 24.4131C161.305 24.6049 161.196 24.6688 161.032 24.6688Z" fill="black"/>
<path d="M212.96 47.8796C212.905 47.8796 212.905 47.8796 212.85 47.8156L212.414 47.6238C211.378 47.1762 210.287 46.6647 209.141 46.1532C208.978 46.0892 208.923 45.8335 208.923 45.6416C208.978 45.4498 209.196 45.3858 209.359 45.3858C210.45 45.8974 211.541 46.4089 212.578 46.8565L213.014 47.0483C213.178 47.1122 213.287 47.368 213.232 47.5599C213.232 47.8156 213.123 47.8796 212.96 47.8796ZM205.65 44.2989C205.596 44.2989 205.541 44.2989 205.487 44.235C204.232 43.4677 203.087 42.6364 202.05 41.8052C201.887 41.6773 201.832 41.4215 201.996 41.2936C202.105 41.1018 202.323 41.0378 202.432 41.2297C203.469 42.0609 204.559 42.8282 205.814 43.5955C205.978 43.6595 206.032 43.9152 205.978 44.107C205.869 44.171 205.759 44.2989 205.65 44.2989ZM199.214 38.9278C199.159 38.9278 199.05 38.8639 198.996 38.7999C198.014 37.649 197.196 36.4341 196.432 35.0913C196.323 34.8995 196.378 34.7076 196.541 34.5798C196.705 34.4519 196.869 34.5159 196.978 34.7077C197.687 35.9865 198.45 37.1374 199.432 38.2884C199.541 38.4163 199.541 38.6721 199.432 38.7999C199.378 38.8639 199.268 38.9278 199.214 38.9278ZM194.959 31.127C194.85 31.127 194.687 31.063 194.632 30.8712C194.196 29.4006 193.814 27.8659 193.65 26.2674C193.596 26.0116 193.759 25.8838 193.923 25.8198C194.141 25.7559 194.25 25.9477 194.305 26.1395C194.523 27.6102 194.796 29.1448 195.287 30.5515C195.341 30.7433 195.232 30.9351 195.069 31.063C195.014 31.1269 194.959 31.127 194.959 31.127ZM197.087 26.2035C196.378 26.2035 195.614 26.1396 194.905 26.0117C194.687 25.9478 194.578 25.7559 194.632 25.5641C194.687 25.3083 194.85 25.1804 195.014 25.2444C195.723 25.3722 196.432 25.4362 197.141 25.4362C197.741 25.4362 198.341 25.3722 198.887 25.3083C199.105 25.2443 199.214 25.4362 199.269 25.628C199.323 25.8198 199.159 26.0117 198.996 26.0756C198.341 26.1396 197.687 26.2035 197.087 26.2035ZM191.087 24.8607C191.032 24.8607 191.032 24.8607 190.978 24.8607C189.887 24.4131 188.741 23.8376 187.269 23.0703C187.105 23.0064 187.05 22.7507 187.105 22.5589C187.159 22.367 187.378 22.3031 187.541 22.367C188.959 23.1343 190.105 23.7098 191.196 24.1574C191.359 24.2213 191.469 24.4131 191.414 24.6689C191.359 24.7328 191.196 24.8607 191.087 24.8607ZM202.65 24.6689C202.541 24.6689 202.432 24.605 202.378 24.4771C202.323 24.2853 202.323 24.0934 202.487 23.9655C203.087 23.5819 203.632 23.1343 204.123 22.5589C204.559 22.1113 204.941 21.5997 205.214 20.9603C205.269 20.7685 205.541 20.7045 205.65 20.8324C205.814 20.8963 205.869 21.2161 205.759 21.344C205.432 22.0473 204.996 22.6227 204.505 23.0703C203.96 23.6458 203.414 24.1574 202.759 24.541C202.759 24.6689 202.705 24.6689 202.65 24.6689ZM193.923 21.9834C193.705 21.9194 193.596 21.7276 193.596 21.5997C193.759 19.9373 194.141 18.4026 194.687 16.9959C194.741 16.8041 194.959 16.7402 195.123 16.8041C195.287 16.8681 195.341 17.1238 195.287 17.3156C194.741 18.5944 194.359 20.0651 194.196 21.6637C194.196 21.8555 194.032 21.9834 193.923 21.9834ZM183.832 21.0882C183.778 21.0882 183.778 21.0882 183.668 21.0242C183.232 20.7685 182.85 20.5767 182.414 20.3209C181.596 19.8733 180.778 19.4896 180.069 19.1699C179.905 19.106 179.796 18.8503 179.85 18.6584C179.905 18.4666 180.123 18.3387 180.287 18.4027C181.05 18.7863 181.814 19.106 182.687 19.5536C183.123 19.8093 183.559 20.0012 183.941 20.257C184.105 20.3209 184.159 20.5766 184.105 20.7685C184.05 20.9603 183.941 21.0882 183.832 21.0882ZM164.85 19.5536C164.741 19.5536 164.632 19.4897 164.577 19.3618C164.468 19.17 164.523 18.9781 164.687 18.8502C165.778 18.019 167.087 17.3796 168.396 16.932C168.614 16.868 168.723 16.9959 168.778 17.1878C168.832 17.4435 168.723 17.5714 168.559 17.6353C167.305 18.019 166.105 18.5945 165.014 19.4257C165.014 19.5536 164.959 19.5536 164.85 19.5536ZM176.414 17.8272C176.359 17.8272 176.359 17.8272 176.359 17.8272C174.996 17.4435 173.687 17.3156 172.487 17.2517C172.268 17.2517 172.159 17.0599 172.159 16.8681C172.159 16.6123 172.323 16.4844 172.487 16.4844C173.741 16.5484 175.105 16.7402 176.468 17.0599C176.687 17.1239 176.741 17.3157 176.687 17.5075C176.687 17.6993 176.578 17.8272 176.414 17.8272ZM206.523 17.1238C206.305 17.1238 206.196 16.932 206.196 16.7402C206.141 15.4614 205.759 14.3104 205.105 13.4791C204.941 13.2873 204.778 13.0955 204.669 12.9677C204.505 12.8398 204.505 12.584 204.614 12.4561C204.723 12.2643 204.941 12.2643 205.05 12.3922C205.269 12.584 205.432 12.7758 205.596 12.9677C206.414 13.9907 206.85 15.2056 206.905 16.7402C206.905 16.932 206.741 17.1238 206.523 17.1238C206.578 17.1238 206.523 17.1238 206.523 17.1238ZM197.414 13.8629C197.305 13.8629 197.196 13.7989 197.141 13.7349C197.032 13.5431 197.087 13.3513 197.196 13.2234C198.287 12.2643 199.65 11.561 200.96 11.3052C201.178 11.2413 201.287 11.4331 201.341 11.6249C201.396 11.8807 201.232 12.0085 201.069 12.0725C199.814 12.2643 198.614 12.9037 197.632 13.7989C197.578 13.8628 197.523 13.8629 197.414 13.8629Z" fill="black"/>
<path d="M218.25 50.8848C218.196 50.8848 218.087 50.8209 218.032 50.8209C217.705 50.4373 217.159 50.0537 216.505 49.67C216.341 49.6061 216.287 49.3503 216.341 49.1585C216.396 48.9666 216.614 48.9027 216.778 48.9666C217.487 49.4142 218.032 49.7978 218.468 50.2454C218.578 50.3733 218.632 50.6291 218.523 50.757C218.469 50.8209 218.359 50.8848 218.25 50.8848Z" fill="black"/>
<path d="M215.414 2.41738C217.542 10.9855 217.378 18.9142 217.16 27.6742C217.105 30.1039 223.869 29.3366 224.36 27.2265C226.16 18.7224 224.905 9.5788 222.614 1.45826C221.851 -1.16333 214.814 0.115495 215.414 2.41738Z" fill="#F8D1AD"/>
<path d="M244.269 19.2978C240.996 26.2034 236.905 31.8942 232.705 37.9686C230.851 40.6541 237.342 40.2065 238.487 38.9277C243.614 33.6206 247.651 26.4592 250.705 19.2978C251.633 17.2517 245.251 17.2517 244.269 19.2978Z" fill="#F8D1AD"/>
<path d="M243.123 55.2328C247.76 55.3607 252.342 55.6164 256.923 55.9361C258.56 56.064 261.178 55.2967 261.669 53.1227C262.16 50.9487 259.978 49.7978 258.505 49.6699C253.869 49.3502 249.342 49.1583 244.705 48.9665C243.069 48.9026 240.505 49.542 239.96 51.7799C239.469 53.9539 241.596 55.1688 243.123 55.2328Z" fill="#F8D1AD"/>
<path d="M160.323 184.842C160.323 184.842 161.305 191.492 161.414 194.753C161.469 196.735 161.414 199.868 161.414 199.868C161.414 199.868 162.669 199.868 163.323 199.804C163.978 199.74 164.741 199.548 164.741 199.548C164.741 199.548 163.978 196.543 163.16 193.602C162.396 191.044 160.323 184.842 160.323 184.842Z" fill="#E0E0E0"/>
<path d="M116.141 184.522C116.141 184.522 114.777 189.19 114.123 192.131C113.687 194.369 113.85 196.351 113.741 196.927C113.577 197.886 112.759 200.507 112.377 201.722C112.268 202.106 111.941 202.298 111.614 202.234C111.068 202.106 110.25 201.85 109.65 201.658C108.668 201.275 107.959 200.955 108.123 201.019C108.123 201.019 110.25 197.438 111.832 194.369C113.141 191.683 116.141 184.522 116.141 184.522Z" fill="#E0E0E0"/>
<path d="M161.141 245.778C169.869 266.047 175.214 288.171 178.105 310.55C181.159 334.273 181.432 358.378 180.505 382.292C179.959 396.104 178.978 409.915 177.832 423.726C177.723 425.325 179.796 425.261 179.905 423.726C181.923 398.981 183.505 374.172 182.959 349.299C182.469 326.088 180.123 302.813 174.778 280.498C171.832 268.157 167.905 256.072 162.996 244.563C162.341 243.156 160.541 244.371 161.141 245.778Z" fill="white"/>
<path d="M113.523 246.225C105.887 266.814 101.687 288.81 99.3958 311.062C96.9958 333.889 96.4503 357.099 96.6685 380.054C96.8321 393.738 97.3776 407.293 98.7413 420.913C98.9049 422.447 100.978 422.511 100.814 420.913C98.4685 397.191 98.3595 373.277 99.0686 349.426C99.7231 327.175 101.359 304.923 105.559 283.119C107.905 270.971 111.123 258.886 115.323 247.44C115.869 246.033 114.069 244.819 113.523 246.225Z" fill="white"/>
<path d="M66.723 192.77H65.8502H62.9594C62.7412 193.154 62.523 193.474 62.2502 193.73H66.6684C66.8865 193.73 67.1048 193.474 67.1048 193.218C67.1048 193.026 66.9411 192.77 66.723 192.77Z" fill="#2B31BA"/>
<path d="M66.7229 177.297C66.9411 177.297 67.1593 177.041 67.1593 176.785C67.1593 176.529 66.9411 176.274 66.7229 176.274H63.7229V177.233L66.7229 177.297Z" fill="#2B31BA"/>
<path d="M61.2686 195.456C59.5232 195.008 57.7232 194.433 55.9777 193.73H18.1776V193.858C18.1776 194.881 18.5049 195.84 19.0504 196.735H59.0868C59.905 196.735 60.6141 196.287 61.2686 195.456Z" fill="#A73C28"/>
<path d="M208.596 195.392C209.25 196.223 210.014 196.735 210.832 196.735H252.723C252.941 196.159 253.05 195.584 252.996 194.881V193.73H213.723C211.978 194.369 210.287 194.944 208.596 195.392Z" fill="#A73C28"/>
<path d="M138.232 231.391C129.287 231.391 116.523 228.897 116.523 228.897C116.523 228.897 116.305 230.048 116.087 231.647C121.869 233.757 129.669 234.844 138.232 234.46C146.305 234.077 153.614 232.414 159.123 230.048C159.178 229.984 159.232 229.984 159.341 229.92C159.341 229.856 159.341 229.856 159.341 229.856C159.341 229.856 147.614 231.455 138.232 231.391Z" fill="#A73C28"/>
<path d="M238.375 84.8836L235.879 87.3538C235.212 88.0145 234.863 88.9835 234.877 90.1816C234.891 91.3796 235.26 92.7113 235.949 94.0731L238.563 99.4511L224.095 113.774L219.072 110.746C217.808 109.954 216.546 109.507 215.412 109.417C214.269 109.337 213.324 109.648 212.657 110.309L210.151 112.79C209.463 113.471 209.001 114.379 208.804 115.474C208.598 116.578 208.635 117.823 208.946 119.177C209.241 120.513 209.794 121.94 210.546 123.308C211.315 124.694 212.263 126.041 213.382 127.254L219.602 134.118C220.71 135.341 221.935 136.414 223.228 137.282C224.51 138.159 225.827 138.795 227.087 139.176C228.347 139.556 229.551 139.681 230.601 139.507C231.668 139.351 232.561 138.917 233.238 138.247L235.744 135.766C236.411 135.105 236.76 134.136 236.746 132.938C236.732 131.74 236.363 130.409 235.674 129.047L233.054 123.64L247.522 109.318L252.545 112.345C253.809 113.138 255.071 113.585 256.204 113.675C257.348 113.755 258.293 113.443 258.96 112.782L261.456 110.312C262.144 109.631 262.606 108.723 262.802 107.628C262.999 106.533 262.962 105.289 262.677 103.943C262.382 102.607 261.836 101.208 261.077 99.8123C260.308 98.4263 259.36 97.0791 258.252 95.8559L252.032 88.9917C250.923 87.7685 249.698 86.6958 248.405 85.8282C247.113 84.9606 245.807 84.3144 244.546 83.9341C243.286 83.5539 242.083 83.4294 241.032 83.6032C239.955 83.769 239.063 84.2025 238.375 84.8836Z" fill="#4B7FFB"/>
<path d="M66.9241 70.5479L56.1058 80.2518C55.5855 80.7185 54.8298 80.87 53.9949 80.6713C53.1601 80.4726 52.3359 79.9485 51.6321 79.176L19.565 43.9277C19.482 43.8266 19.3991 43.7255 19.3428 43.6006C19.2865 43.4756 19.2468 43.3709 19.2338 43.2422C19.2208 43.1135 19.2244 43.0049 19.2445 42.9166C19.278 42.8164 19.3281 42.7363 19.3948 42.6765L36.9896 26.8941C37.0563 26.8343 37.1396 26.7947 37.2261 26.7873C37.326 26.7679 37.4292 26.7806 37.5356 26.8256C37.6553 26.8586 37.7483 26.9155 37.8579 26.9926C37.9676 27.0697 38.0506 27.1707 38.1336 27.2718L66.599 65.7507C67.2062 66.5748 67.58 67.538 67.6545 68.4187C67.7024 69.3234 67.4443 70.0812 66.9241 70.5479Z" fill="#ADCCFF"/>
<path d="M64.9895 65.2291L45.0667 38.4245L29.046 52.795L51.3833 77.4339C52.0207 78.1255 52.7817 78.601 53.5267 78.775C54.2718 78.9489 54.9577 78.825 55.4379 78.3943L65.2824 69.5638C65.7626 69.1331 66.0005 68.4635 65.9325 67.6471C65.881 66.851 65.5303 65.9724 64.9895 65.2291Z" fill="#4B7FFB"/>
<path d="M32.824 152.894C24.6599 157.487 14.4026 145.591 14.4026 145.591L13.569 146.013C13.569 146.013 18.6704 162.657 31.1205 159.351C46.0715 155.392 46.6424 131.926 46.6424 131.926L46.7511 128.352C46.4793 133.06 44.6851 146.225 32.824 152.894Z" fill="#E69E19"/>
<path d="M47.1678 118.166C47.1316 117.705 47.0229 117.282 46.8507 116.974C46.6785 116.667 46.4701 116.494 46.2526 116.494C45.6818 116.552 45.6093 117.993 45.6002 118.204C45.5368 119.261 45.6002 125.796 45.1925 126.987C43.6883 131.561 40.4716 139.345 31.1567 143.208C26.2274 145.264 14.6381 142.42 14.6381 142.42L14.3934 145.591C14.3934 145.591 24.6598 157.468 32.8148 152.894C46.9322 144.976 46.7963 127.852 46.7691 126.718C46.7782 126.699 47.186 118.473 47.1678 118.166Z" fill="#FDB62F"/>
<path d="M13.5599 146.033C13.8408 145.917 14.1218 145.783 14.3936 145.591C14.4389 145.495 14.6473 142.401 14.6473 142.401C14.6473 142.401 13.9405 142.324 13.7593 143.035C13.5147 144.092 13.5599 146.033 13.5599 146.033Z" fill="#6B4D3A"/>
<path d="M103.62 30.1527C100.954 26.7042 95.5705 24.8105 92.2548 26.3255C88.9392 27.8404 90.0672 27.5614 88.9221 27.8205C87.777 28.0796 85.7773 27.362 83.7264 28.9368C81.402 30.7109 76.9241 35.8737 78.6674 43.2491C80.1543 49.5282 85.897 55.309 93.4 54.5117C100.903 53.7342 104.885 48.9302 106.099 44.6644C107.534 39.681 106.201 33.5016 103.62 30.1527Z" fill="#FF5856"/>
<path d="M91.4176 32.1063C91.4176 32.1063 92.255 23.5747 87.7601 21.1627C83.2651 18.7507 75.9842 15.4019 76.2748 15.96C76.5824 16.4982 77.7446 25.9468 80.7185 28.7175C85.1793 32.9435 91.4176 32.1063 91.4176 32.1063Z" fill="#1F6771"/>
<path d="M92.8873 31.3688C92.8873 31.3688 92.477 27.1428 92.5112 24.6511C92.5796 19.5282 92.8531 17.0365 92.8531 17.0365L89.1101 17.3754C89.1101 17.3754 89.2298 23.3355 89.5033 25.5681C89.7425 27.7408 90.2382 29.8737 90.9389 31.907C91.1098 32.0864 91.3149 32.2259 91.5542 32.2857C91.7764 32.3455 92.0157 32.3455 92.2378 32.2658C92.4087 32.206 92.5626 32.0664 92.6651 31.907C92.8018 31.7674 92.8702 31.5681 92.8873 31.3688Z" fill="#6B4D3A"/>
<path d="M91.1102 18.2724C92.1357 18.1328 92.9218 17.5348 92.8706 16.9567C92.8022 16.3787 91.9305 16.0199 90.888 16.1594C89.8625 16.2989 89.0763 16.897 89.1276 17.475C89.1789 18.0531 90.0676 18.4119 91.1102 18.2724Z" fill="#8A634B"/>
</svg>
